<?xml version="1.0" standalone="no"?>
<!DOCTYPE svg PUBLIC "-//W3C//DTD SVG 20010904//EN"
 "http://www.w3.org/TR/2001/REC-SVG-20010904/DTD/svg10.dtd">
<svg version="1.0" xmlns="http://www.w3.org/2000/svg"
 width="998.000000pt" height="996.000000pt" viewBox="0 0 998.000000 996.000000"
 preserveAspectRatio="xMidYMid meet">

<g transform="translate(0.000000,996.000000) scale(0.100000,-0.100000)"
fill="#000000" stroke="none">
<path d="M5070 9224 c-1071 -70 -2025 -498 -2770 -1244 -703 -703 -1121 -1584
-1226 -2587 -33 -311 -20 -751 32 -1070 110 -685 383 -1333 793 -1878 526
-701 1232 -1213 2056 -1490 371 -125 707 -189 1142 -215 81 -5 153 -10 158
-10 34 -2 347 14 490 25 133 11 494 80 670 129 524 145 1014 387 1435 705 689
522 1201 1231 1474 2042 262 779 291 1639 81 2434 -325 1234 -1207 2272 -2375
2795 -417 187 -840 300 -1315 350 -103 11 -548 21 -645 14z m670 -118 c689
-80 1260 -287 1860 -675 268 -173 617 -483 846 -751 406 -476 698 -1028 858
-1626 96 -360 140 -696 139 -1074 -1 -566 -100 -1068 -314 -1588 -75 -182
-194 -418 -273 -542 -238 -373 -388 -562 -661 -831 -325 -319 -666 -561 -1080
-763 -158 -78 -210 -100 -412 -175 -383 -142 -898 -242 -1238 -240 -49 0 -97
-2 -106 -6 -27 -10 -436 13 -589 34 -924 126 -1738 525 -2392 1175 -584 580
-985 1326 -1142 2121 -60 305 -79 509 -79 825 0 456 66 865 208 1295 261 789
760 1488 1425 1996 612 469 1370 765 2120 829 69 6 145 12 170 14 93 8 540 -4
660 -18z"/>
<path d="M5040 8790 c-937 -72 -1778 -457 -2435 -1115 -571 -572 -943 -1295
-1071 -2085 -56 -351 -60 -806 -8 -1160 194 -1336 1107 -2493 2359 -2990 657
-261 1391 -337 2075 -215 80 15 161 29 180 32 19 2 44 9 55 13 11 5 48 16 82
25 111 28 422 131 478 158 17 8 86 41 153 72 1144 532 1957 1606 2157 2850 46
285 58 688 31 975 -86 879 -465 1685 -1090 2315 -193 194 -344 320 -571 476
-500 344 -1100 565 -1720 634 -164 19 -524 26 -675 15z m556 -40 c722 -58
1396 -315 1979 -753 229 -172 483 -419 658 -637 200 -249 392 -560 512 -829
401 -896 440 -1901 111 -2822 -133 -374 -334 -737 -585 -1059 -159 -205 -451
-498 -628 -630 -32 -24 -74 -56 -94 -71 -363 -277 -889 -527 -1319 -628 -52
-12 -120 -28 -150 -36 -272 -70 -832 -99 -1170 -61 -584 65 -1092 237 -1580
535 -175 106 -401 273 -536 396 -669 605 -1095 1387 -1228 2255 -31 203 -40
333 -40 580 1 274 15 433 60 680 138 751 502 1440 1049 1985 632 632 1431
1007 2320 1090 175 16 472 18 641 5z"/>
<path d="M5194 8380 c-69 -28 -71 -165 -2 -184 53 -14 86 -7 112 25 69 82 -12
199 -110 159z"/>
<path d="M6956 6799 c-55 -43 -16 -129 60 -129 67 0 117 61 86 106 -31 45
-103 57 -146 23z"/>
<path d="M3612 6778 c-5 -7 -13 -24 -16 -38 -11 -40 -33 -95 -80 -202 -9 -20
-16 -40 -16 -45 0 -6 -7 -23 -15 -40 -8 -17 -26 -59 -39 -94 -76 -201 -128
-337 -138 -359 -27 -62 -39 -92 -78 -195 -44 -116 -102 -238 -128 -268 -27
-30 -73 -47 -133 -47 -60 0 -82 -12 -52 -28 10 -6 124 -9 258 -8 212 1 240 3
243 17 2 13 -11 18 -70 24 -40 5 -79 7 -85 6 -7 -1 -22 3 -34 9 -27 15 -25 27
36 200 27 74 60 170 75 213 15 44 33 83 40 87 8 5 103 9 211 10 228 1 207 10
249 -110 12 -36 26 -74 31 -85 18 -39 89 -269 89 -286 0 -28 -51 -49 -120 -49
-53 0 -61 -2 -58 -17 3 -17 23 -18 242 -20 225 -2 285 4 272 26 -3 5 -25 11
-49 13 -92 11 -120 42 -167 188 -12 36 -25 74 -30 85 -5 11 -14 36 -20 55 -7
19 -26 71 -42 115 -16 44 -33 94 -38 110 -6 17 -14 39 -18 50 -20 44 -72 182
-72 189 0 3 -20 57 -44 119 -24 62 -60 156 -80 210 -50 135 -72 177 -95 177
-10 0 -23 -6 -29 -12z m-13 -212 c7 -8 16 -27 21 -43 5 -15 25 -73 45 -128 19
-55 50 -143 67 -195 18 -52 36 -96 40 -98 14 -6 8 -40 -8 -46 -27 -10 -349 -7
-360 4 -10 10 27 135 94 315 85 229 79 217 101 191z"/>
<path d="M7036 6335 c-27 -49 -97 -112 -151 -135 -56 -24 -59 -49 -10 -73 20
-9 42 -17 51 -17 29 0 35 -53 35 -308 -1 -140 -4 -258 -7 -263 -9 -15 -65 -35
-116 -43 -51 -8 -65 -18 -45 -34 14 -11 426 -10 445 2 21 13 -4 33 -59 47 -89
23 -84 -3 -84 453 0 394 0 401 -20 404 -14 2 -26 -8 -39 -33z"/>
<path d="M5585 6271 c-75 -26 -125 -50 -172 -82 -23 -16 -46 -29 -52 -29 -7 0
-11 24 -11 60 0 57 -1 60 -24 60 -17 0 -27 -8 -35 -28 -16 -39 -86 -106 -141
-135 -56 -29 -66 -62 -21 -72 16 -3 40 -16 54 -29 23 -21 24 -29 30 -194 7
-174 2 -277 -15 -299 -5 -7 -35 -17 -66 -24 -70 -14 -76 -17 -62 -34 8 -10 58
-12 218 -10 114 1 210 3 215 4 12 2 8 21 -5 25 -7 3 -40 12 -73 22 -33 10 -63
23 -67 28 -4 6 -8 131 -8 277 l0 267 34 30 c101 88 242 114 325 59 76 -50 81
-72 81 -375 l0 -263 -35 -15 c-19 -7 -45 -14 -59 -14 -13 0 -31 -3 -40 -6 -19
-7 -21 -30 -3 -36 15 -6 398 0 404 6 2 2 -1 13 -8 24 -13 21 -38 32 -75 32
-45 0 -48 15 -49 303 -1 150 -6 287 -10 305 -4 18 -27 54 -50 80 -70 78 -170
101 -280 63z"/>
<path d="M3430 4985 l0 -55 1870 0 1870 0 0 55 0 55 -1870 0 -1870 0 0 -55z"/>
<path d="M4216 4607 l-28 -12 -2 -707 -1 -706 110 -4 c61 -2 120 -2 133 0 36
7 25 30 -18 37 -72 12 -82 28 -93 151 -6 60 -7 139 -3 176 7 63 9 67 36 73 41
9 77 -13 146 -92 66 -74 204 -251 204 -262 -1 -22 -68 -51 -119 -51 -22 0 -30
-29 -8 -31 6 -1 104 -1 217 0 113 1 213 1 223 1 9 0 17 6 17 14 0 14 -29 26
-67 26 -32 0 -113 74 -194 175 -40 50 -112 136 -161 192 -48 56 -88 106 -88
111 0 11 144 144 244 227 62 50 101 68 165 77 32 4 38 26 9 32 -13 3 -113 2
-223 -2 -166 -6 -200 -10 -200 -22 0 -9 19 -20 50 -28 57 -16 85 -37 85 -64 0
-26 -62 -90 -155 -162 -102 -79 -130 -96 -155 -96 -20 0 -20 3 -20 368 0 202
0 418 0 480 l0 112 -37 0 c-21 -1 -51 -6 -67 -13z"/>
<path d="M6095 4026 c-52 -24 -85 -49 -126 -94 -63 -69 -113 -163 -104 -192 7
-22 38 -34 68 -26 31 8 77 53 77 76 0 30 39 126 58 143 63 55 166 75 218 41
38 -25 62 -86 70 -175 7 -78 6 -80 -22 -109 -16 -16 -36 -30 -45 -30 -9 0 -22
-6 -28 -14 -7 -8 -23 -17 -37 -20 -47 -12 -166 -91 -224 -149 -64 -63 -120
-162 -120 -211 0 -41 33 -94 68 -107 40 -16 172 -5 212 17 53 31 63 37 117 77
55 40 73 46 73 22 0 -9 9 -33 20 -54 26 -52 75 -75 148 -69 51 5 59 9 104 56
50 53 63 92 29 92 -11 0 -28 -10 -38 -23 -21 -26 -70 -34 -96 -14 -17 12 -19
35 -23 282 -2 149 -6 294 -9 323 -7 70 -38 123 -94 158 -41 26 -56 29 -136 31
-84 2 -95 0 -160 -31z m253 -525 l-5 -134 -34 -29 c-53 -44 -110 -76 -157 -87
-40 -9 -46 -7 -78 21 -63 56 -43 140 58 241 37 38 117 95 150 108 14 6 29 17
32 26 5 13 9 13 22 2 14 -12 16 -33 12 -148z"/>
<path d="M5126 1894 c-51 -52 -25 -154 43 -169 70 -15 131 46 117 119 -14 73
-107 102 -160 50z"/>
</g>
</svg>
